# File created by Blade
# Date/Time:  Tue Jan 27 19:00:36 2015
# Frame Rate: 120.000 fps
#------------------------------------------------------
:FULLY-SPECIFIED
:DEGREES
2665
root -1.655521 31.927161 -5.963104 9.426385 -19.746282 -13.103134
Spine 4.475414 -13.534067 2.664957
Head 27.034888 -0.178588 5.638103
LeftShoulder -16.045472 17.845529 15.717731
LeftArm 1.767770 -37.370396 -76.965490
LeftForeArm 3.707485 0.000000 101.023460
LeftHand -15.522106 -0.000000 31.450578
LeftHandThumb1 -26.253704 0.000000 33.147579
RightShoulder -14.833822 -4.591523 -5.367743
RightArm 5.558761 -27.529041 80.485281
RightForeArm -27.288435 -0.000000 17.741787
RightHand -15.597949 -0.000000 6.575559
RightHandThumb1 -24.326973 -0.000000 -32.862282
LeftUpLeg -14.311216 15.888696 0.080798
LeftLeg 22.474854 -0.000000 -0.000000
LeftFoot -32.929655 30.352238 -21.733530
LeftToeBase 9.797851 -0.000000 -0.000000
RightUpLeg -42.634927 17.158385 -12.327516
RightLeg 94.428762 -0.000000 -0.000000
RightFoot -5.894717 -24.471116 12.806923
RightToeBase 2.822571 -0.000000 -0.000000
2666
root -1.655839 31.931750 -5.971290 9.404915 -19.139376 -13.070137
Spine 4.460791 -13.805378 2.822986
Head 26.887124 -0.508803 5.626756
LeftShoulder -15.948228 17.732716 15.724774
LeftArm 2.064218 -37.036770 -77.139509
LeftForeArm 3.893372 -0.000000 100.955055
LeftHand -15.511069 -0.000000 31.467366
LeftHandThumb1 -26.253704 0.000000 33.147579
RightShoulder -14.948413 -4.752544 -5.360132
RightArm 5.432401 -27.369724 80.523471
RightForeArm -27.229291 -0.000000 17.696756
RightHand -15.547819 -0.000000 6.622138
RightHandThumb1 -24.326973 -0.000000 -32.862282
LeftUpLeg -14.407793 15.771310 0.103084
LeftLeg 22.483311 -0.000000 -0.000000
LeftFoot -32.666655 30.008919 -21.428055
LeftToeBase 9.769785 -0.000000 -0.000000
RightUpLeg -42.514680 16.681203 -12.027779
RightLeg 94.595211 -0.000000 -0.000000
RightFoot -6.191623 -24.766339 12.955391
RightToeBase 2.737947 -0.000000 -0.000000
2667
root -1.656822 31.936981 -5.976937 9.388689 -18.589789 -13.039928
Spine 4.427851 -14.029531 2.969126
Head 26.779122 -0.843812 5.602765
LeftShoulder -15.858160 17.601923 15.744043
LeftArm 2.292242 -36.703046 -77.284583
LeftForeArm 4.045798 -0.000000 100.904324
LeftHand -15.526923 -0.000000 31.508053
LeftHandThumb1 -26.253704 0.000000 33.147579
RightShoulder -15.013997 -4.910104 -5.341957
RightArm 5.289239 -27.177273 80.565332
RightForeArm -27.205778 0.000000 17.631690
RightHand -15.551794 -0.000000 6.740693
RightHandThumb1 -24.326973 -0.000000 -32.862282
LeftUpLeg -14.471291 15.647486 0.118783
LeftLeg 22.443671 -0.000000 -0.000000
LeftFoot -32.422849 29.732868 -21.147318
LeftToeBase 9.682870 -0.000000 -0.000000
RightUpLeg -42.437694 16.218620 -11.739011
RightLeg 94.753303 -0.000000 -0.000000
RightFoot -6.035010 -24.794079 12.620348
RightToeBase 2.792024 -0.000000 -0.000000
2668
root -1.653108 31.940882 -5.981675 9.337769 -18.086732 -12.987681
Spine 4.436236 -14.194223 3.084101
Head 26.667358 -1.173803 5.599954
LeftShoulder -15.740078 17.496803 15.774438
LeftArm 2.528991 -36.412861 -77.467363
LeftForeArm 4.167843 0.000000 100.865289
LeftHand -15.508827 -0.000000 31.476858
LeftHandThumb1 -26.253704 0.000000 33.147579
RightShoulder -15.097377 -5.079714 -5.329186
RightArm 5.215152 -27.041060 80.586849
RightForeArm -27.145260 -0.000000 17.497286
RightHand -15.422892 -0.000000 6.777362
RightHandThumb1 -24.326973 -0.000000 -32.862282
LeftUpLeg -14.489619 15.446718 0.111731
LeftLeg 22.378602 -0.000000 -0.000000
LeftFoot -32.234570 29.576865 -20.917900
LeftToeBase 9.805459 -0.000000 -0.000000
RightUpLeg -42.356733 15.718425 -11.484110
RightLeg 94.903158 -0.000000 -0.000000
RightFoot -5.445933 -24.520312 11.824652
RightToeBase 2.827412 -0.000000 -0.000000
2669
root -1.649450 31.945269 -5.983656 9.288754 -17.659547 -12.931004
Spine 4.428984 -14.271087 3.173992
Head 26.599533 -1.533033 5.615428
LeftShoulder -15.600402 17.373085 15.817463
LeftArm 2.701518 -36.131249 -77.607167
LeftForeArm 4.304523 0.000000 100.839772
LeftHand -15.525631 -0.000000 31.404722
LeftHandThumb1 -26.253704 0.000000 33.147579
RightShoulder -15.195621 -5.239838 -5.300244
RightArm 5.161506 -27.031637 80.576229
RightForeArm -27.052708 0.000000 17.347744
RightHand -15.396415 -0.000000 6.818036
RightHandThumb1 -24.326973 -0.000000 -32.862282
LeftUpLeg -14.475336 15.298784 0.091259
LeftLeg 22.270649 -0.000000 -0.000000
LeftFoot -32.015256 29.439153 -20.671831
LeftToeBase 9.786315 -0.000000 -0.000000
RightUpLeg -42.330331 15.273167 -11.269096
RightLeg 95.044165 -0.000000 -0.000000
RightFoot -4.665043 -24.040714 10.966014
RightToeBase 3.228897 -0.000000 -0.000000
